<svg xmlns="http://www.w3.org/2000/svg" width="1400" height="440">
<rect x="0" y="0" width="1400" height="440" fill="white"/>
<text x="70" y="26" font-size="16" font-family="Arial">utt_0027.wav | TP=2 FP=0 FN=2 | P=1.000 R=0.500</text>
<rect x="70" y="50" width="1300" height="330" fill="none" stroke="#777" stroke-width="1"/>
<polyline fill="none" stroke="#1f77b4" stroke-width="1.3" points="70.00,379.79 77.47,379.63 84.94,378.90 92.41,377.43 99.89,371.58 107.36,376.42 114.83,377.85 122.30,379.48 129.77,378.76 137.24,379.66 144.71,377.13 152.18,365.55 159.66,373.74 167.13,371.12 174.60,348.76 182.07,344.47 189.54,348.87 197.01,325.57 204.48,348.50 211.95,278.96 219.43,132.20 226.90,90.62 234.37,156.58 241.84,243.53 249.31,280.06 256.78,372.42 264.25,379.30 271.72,379.74 279.20,379.97 286.67,379.88 294.14,379.79 301.61,379.32 309.08,379.20 316.55,379.32 324.02,379.27 331.49,379.50 338.97,378.53 346.44,366.52 353.91,352.97 361.38,372.36 368.85,373.70 376.32,360.23 383.79,377.38 391.26,378.70 398.74,377.61 406.21,378.92 413.68,376.70 421.15,375.88 428.62,377.19 436.09,365.38 443.56,272.89 451.03,181.83 458.51,284.39 465.98,282.85 473.45,216.85 480.92,130.14 488.39,120.99 495.86,102.45 503.33,139.54 510.80,284.17 518.28,379.20 525.75,376.84 533.22,375.67 540.69,379.37 548.16,379.45 555.63,379.67 563.10,379.49 570.57,379.48 578.05,378.61 585.52,379.66 592.99,377.38 600.46,373.71 607.93,374.86 615.40,255.18 622.87,374.53 630.34,318.49 637.82,375.58 645.29,377.29 652.76,379.51 660.23,379.90 667.70,379.71 675.17,377.53 682.64,364.42 690.11,306.92 697.59,355.72 705.06,214.14 712.53,131.41 720.00,177.02 727.47,320.75 734.94,371.16 742.41,379.11 749.89,379.53 757.36,379.96 764.83,379.88 772.30,379.84 779.77,379.58 787.24,379.98 794.71,379.91 802.18,379.62 809.66,378.58 817.13,379.89 824.60,379.10 832.07,379.25 839.54,379.96 847.01,379.92 854.48,379.91 861.95,378.34 869.43,376.28 876.90,373.33 884.37,355.39 891.84,372.57 899.31,379.43 906.78,376.52 914.25,371.81 921.72,379.63 929.20,378.80 936.67,379.69 944.14,379.95 951.61,379.99 959.08,379.85 966.55,379.62 974.02,379.19 981.49,371.71 988.97,341.44 996.44,258.69 1003.91,358.32 1011.38,344.47 1018.85,364.60 1026.32,378.84 1033.79,357.87 1041.26,369.81 1048.74,379.64 1056.21,379.87 1063.68,378.78 1071.15,379.26 1078.62,374.30 1086.09,373.11 1093.56,365.97 1101.03,379.22 1108.51,379.81 1115.98,379.93 1123.45,379.06 1130.92,369.94 1138.39,378.59 1145.86,379.84 1153.33,379.65 1160.80,377.02 1168.28,373.35 1175.75,374.55 1183.22,356.83 1190.69,366.76 1198.16,303.03 1205.63,309.67 1213.10,365.25 1220.57,373.90 1228.05,378.76 1235.52,378.75 1242.99,361.07 1250.46,376.25 1257.93,378.48 1265.40,379.02 1272.87,374.67 1280.34,378.78 1287.82,379.24 1295.29,370.31 1302.76,369.84 1310.23,379.48 1317.70,376.14 1325.17,377.68 1332.64,369.05 1340.11,370.15 1347.59,368.64 1355.06,365.87 1362.53,222.15 1370.00,291.08"/>
<line x1="70" y1="122.60" x2="1370" y2="122.60" stroke="#ff7f0e" stroke-width="1.2" stroke-dasharray="6 4"/><line x1="70" y1="182.00" x2="1370" y2="182.00" stroke="#bcbd22" stroke-width="1.2" stroke-dasharray="6 4"/><line x1="219.43" y1="50" x2="219.43" y2="380" stroke="#2ca02c" stroke-width="1.0" opacity="0.35"/><line x1="488.39" y1="50" x2="488.39" y2="380" stroke="#2ca02c" stroke-width="1.0" opacity="0.35"/><line x1="712.53" y1="50" x2="712.53" y2="380" stroke="#2ca02c" stroke-width="1.0" opacity="0.35"/><line x1="981.49" y1="50" x2="981.49" y2="380" stroke="#2ca02c" stroke-width="1.0" opacity="0.35"/><line x1="226.90" y1="50" x2="226.90" y2="380" stroke="#17becf" stroke-width="1.4" opacity="0.75"/><line x1="495.86" y1="50" x2="495.86" y2="380" stroke="#17becf" stroke-width="1.4" opacity="0.75"/><line x1="712.53" y1="50" x2="712.53" y2="380" stroke="#9467bd" stroke-width="1.3" opacity="0.7"/><line x1="981.49" y1="50" x2="981.49" y2="380" stroke="#9467bd" stroke-width="1.3" opacity="0.7"/>
<text x="70" y="420" font-size="12" font-family="Arial">Blue=boundary_p, Green=GT, Cyan=TP, Red=FP, Purple=FN, Orange/Olive=thresholds</text>
</svg>
