<svg xmlns="http://www.w3.org/2000/svg" width="1400" height="440">
<rect x="0" y="0" width="1400" height="440" fill="white"/>
<text x="70" y="26" font-size="16" font-family="Arial">utt_0004.wav | TP=3 FP=2 FN=0 | P=0.600 R=1.000</text>
<rect x="70" y="50" width="1300" height="330" fill="none" stroke="#777" stroke-width="1"/>
<polyline fill="none" stroke="#1f77b4" stroke-width="1.3" points="70.00,379.49 74.94,379.72 79.89,378.51 84.83,377.65 89.77,374.68 94.71,376.83 99.66,379.23 104.60,378.95 109.54,379.39 114.49,379.26 119.43,379.15 124.37,377.95 129.32,377.84 134.26,377.87 139.20,378.93 144.14,377.58 149.09,379.89 154.03,379.94 158.97,379.94 163.92,379.91 168.86,378.39 173.80,374.56 178.75,371.69 183.69,371.69 188.63,348.09 193.57,351.82 198.52,342.70 203.46,359.43 208.40,362.00 213.35,344.46 218.29,245.52 223.23,141.23 228.17,99.48 233.12,176.78 238.06,326.11 243.00,379.11 247.95,379.20 252.89,379.88 257.83,378.65 262.78,378.53 267.72,378.41 272.66,378.29 277.60,376.92 282.55,371.24 287.49,357.27 292.43,349.83 297.38,378.41 302.32,379.88 307.26,379.32 312.21,378.97 317.15,368.84 322.09,373.41 327.03,364.28 331.98,334.54 336.92,356.89 341.86,363.18 346.81,365.30 351.75,371.81 356.69,371.84 361.63,373.51 366.58,370.90 371.52,376.52 376.46,364.76 381.41,362.08 386.35,378.97 391.29,377.12 396.24,379.14 401.18,377.37 406.12,377.73 411.06,372.23 416.01,370.14 420.95,378.68 425.89,378.62 430.84,378.43 435.78,335.30 440.72,349.62 445.67,377.63 450.61,379.72 455.55,379.24 460.49,297.42 465.44,89.64 470.38,351.20 475.32,342.42 480.27,320.83 485.21,311.25 490.15,276.07 495.10,368.01 500.04,374.76 504.98,379.18 509.92,379.78 514.87,379.97 519.81,379.49 524.75,374.57 529.70,370.28 534.64,331.10 539.58,366.80 544.52,378.89 549.47,378.29 554.41,378.25 559.35,378.65 564.30,379.23 569.24,379.59 574.18,379.81 579.13,379.88 584.07,378.76 589.01,379.19 593.95,379.01 598.90,379.00 603.84,379.65 608.78,379.90 613.73,377.75 618.67,362.66 623.61,343.13 628.56,254.49 633.50,142.64 638.44,206.04 643.38,254.31 648.33,197.71 653.27,172.35 658.21,108.52 663.16,91.97 668.10,237.10 673.04,109.96 677.98,76.61 682.93,98.17 687.87,313.96 692.81,367.92 697.76,379.70 702.70,379.96 707.64,379.85 712.59,379.93 717.53,379.52 722.47,379.97 727.41,379.87 732.36,378.02 737.30,379.49 742.24,367.55 747.19,378.36 752.13,379.39 757.07,379.80 762.02,378.33 766.96,378.83 771.90,379.36 776.84,378.99 781.79,377.95 786.73,375.17 791.67,372.87 796.62,367.50 801.56,372.58 806.50,379.34 811.44,371.86 816.39,378.80 821.33,379.65 826.27,378.81 831.22,344.64 836.16,283.92 841.10,355.56 846.05,324.30 850.99,358.51 855.93,363.79 860.87,365.67 865.82,378.89 870.76,379.23 875.70,378.91 880.65,379.62 885.59,379.25 890.53,379.53 895.48,379.81 900.42,378.76 905.36,378.86 910.30,373.54 915.25,336.55 920.19,310.69 925.13,373.78 930.08,374.54 935.02,379.17 939.96,375.11 944.90,376.06 949.85,370.45 954.79,348.37 959.73,357.01 964.68,349.35 969.62,336.93 974.56,278.17 979.51,246.14 984.45,228.77 989.39,126.90 994.33,124.46 999.28,107.04 1004.22,100.86 1009.16,177.81 1014.11,178.30 1019.05,121.55 1023.99,86.90 1028.94,118.81 1033.88,234.19 1038.82,331.68 1043.76,356.34 1048.71,377.90 1053.65,376.77 1058.59,378.36 1063.54,379.49 1068.48,379.84 1073.42,378.45 1078.37,378.36 1083.31,379.87 1088.25,379.26 1093.19,379.96 1098.14,379.91 1103.08,379.50 1108.02,378.86 1112.97,379.56 1117.91,377.72 1122.85,378.72 1127.79,350.26 1132.74,345.72 1137.68,364.07 1142.62,373.07 1147.57,378.71 1152.51,378.66 1157.45,377.79 1162.40,374.83 1167.34,378.98 1172.28,379.44 1177.22,379.05 1182.17,378.67 1187.11,378.86 1192.05,375.63 1197.00,377.01 1201.94,351.18 1206.88,314.14 1211.83,372.95 1216.77,368.37 1221.71,370.40 1226.65,379.41 1231.60,374.44 1236.54,365.73 1241.48,379.80 1246.43,379.98 1251.37,378.04 1256.31,364.95 1261.25,339.50 1266.20,369.03 1271.14,379.32 1276.08,369.58 1281.03,377.88 1285.97,379.67 1290.91,379.20 1295.86,379.21 1300.80,379.78 1305.74,379.43 1310.68,379.77 1315.63,378.79 1320.57,379.42 1325.51,379.61 1330.46,379.26 1335.40,379.45 1340.34,379.74 1345.29,378.43 1350.23,379.66 1355.17,374.55 1360.11,365.29 1365.06,311.60 1370.00,312.67"/>
<line x1="70" y1="122.60" x2="1370" y2="122.60" stroke="#ff7f0e" stroke-width="1.2" stroke-dasharray="6 4"/><line x1="70" y1="182.00" x2="1370" y2="182.00" stroke="#bcbd22" stroke-width="1.2" stroke-dasharray="6 4"/><line x1="465.44" y1="50" x2="465.44" y2="380" stroke="#2ca02c" stroke-width="1.0" opacity="0.35"/><line x1="682.93" y1="50" x2="682.93" y2="380" stroke="#2ca02c" stroke-width="1.0" opacity="0.35"/><line x1="1023.99" y1="50" x2="1023.99" y2="380" stroke="#2ca02c" stroke-width="1.0" opacity="0.35"/><line x1="465.44" y1="50" x2="465.44" y2="380" stroke="#17becf" stroke-width="1.4" opacity="0.75"/><line x1="663.16" y1="50" x2="663.16" y2="380" stroke="#17becf" stroke-width="1.4" opacity="0.75"/><line x1="1004.22" y1="50" x2="1004.22" y2="380" stroke="#17becf" stroke-width="1.4" opacity="0.75"/><line x1="228.17" y1="50" x2="228.17" y2="380" stroke="#d62728" stroke-width="1.4" opacity="0.75"/><line x1="1028.94" y1="50" x2="1028.94" y2="380" stroke="#d62728" stroke-width="1.4" opacity="0.75"/>
<text x="70" y="420" font-size="12" font-family="Arial">Blue=boundary_p, Green=GT, Cyan=TP, Red=FP, Purple=FN, Orange/Olive=thresholds</text>
</svg>
