<svg xmlns="http://www.w3.org/2000/svg" width="1400" height="440">
<rect x="0" y="0" width="1400" height="440" fill="white"/>
<text x="70" y="26" font-size="16" font-family="Arial">utt_0033.wav | TP=1 FP=1 FN=2 | P=0.500 R=0.333</text>
<rect x="70" y="50" width="1300" height="330" fill="none" stroke="#777" stroke-width="1"/>
<polyline fill="none" stroke="#1f77b4" stroke-width="1.3" points="70.00,379.41 76.95,379.52 83.90,378.17 90.86,378.68 97.81,362.16 104.76,367.80 111.71,378.20 118.66,379.50 125.61,375.84 132.57,377.34 139.52,375.24 146.47,379.28 153.42,379.93 160.37,378.36 167.33,376.96 174.28,377.89 181.23,378.57 188.18,379.68 195.13,379.91 202.09,379.99 209.04,379.23 215.99,375.55 222.94,361.39 229.89,376.36 236.84,370.21 243.80,373.42 250.75,365.99 257.70,377.06 264.65,363.72 271.60,334.76 278.56,356.53 285.51,379.41 292.46,362.62 299.41,330.44 306.36,319.15 313.32,268.95 320.27,357.99 327.22,373.65 334.17,377.40 341.12,373.54 348.07,367.57 355.03,376.67 361.98,378.85 368.93,379.26 375.88,374.56 382.83,376.84 389.79,377.39 396.74,373.21 403.69,379.22 410.64,358.50 417.59,377.08 424.55,361.11 431.50,372.73 438.45,371.81 445.40,374.75 452.35,376.34 459.30,377.40 466.26,375.24 473.21,375.57 480.16,365.43 487.11,360.36 494.06,325.23 501.02,304.77 507.97,205.36 514.92,115.42 521.87,234.30 528.82,334.86 535.78,342.22 542.73,359.60 549.68,373.37 556.63,376.50 563.58,376.94 570.53,320.00 577.49,379.07 584.44,379.91 591.39,379.98 598.34,379.82 605.29,379.70 612.25,379.84 619.20,379.74 626.15,369.91 633.10,370.37 640.05,377.85 647.01,378.32 653.96,377.94 660.91,373.12 667.86,376.63 674.81,372.75 681.76,363.23 688.72,377.18 695.67,378.62 702.62,374.59 709.57,376.72 716.52,378.85 723.48,375.63 730.43,374.47 737.38,375.53 744.33,361.93 751.28,321.32 758.24,265.26 765.19,167.78 772.14,218.80 779.09,138.09 786.04,134.93 792.99,76.80 799.95,61.56 806.90,255.94 813.85,378.46 820.80,379.47 827.75,379.90 834.71,379.81 841.66,379.52 848.61,379.26 855.56,379.80 862.51,379.96 869.47,379.86 876.42,379.86 883.37,379.99 890.32,379.96 897.27,379.99 904.22,379.77 911.18,377.91 918.13,331.90 925.08,356.02 932.03,378.21 938.98,379.18 945.94,378.78 952.89,376.65 959.84,378.39 966.79,376.86 973.74,377.85 980.70,379.05 987.65,378.61 994.60,363.64 1001.55,376.15 1008.50,373.19 1015.45,376.83 1022.41,333.65 1029.36,372.00 1036.31,273.56 1043.26,358.89 1050.21,317.48 1057.17,370.06 1064.12,376.30 1071.07,378.35 1078.02,379.01 1084.97,364.12 1091.93,376.03 1098.88,377.76 1105.83,372.03 1112.78,345.71 1119.73,374.43 1126.68,362.89 1133.64,363.00 1140.59,335.22 1147.54,348.08 1154.49,364.88 1161.44,322.37 1168.40,335.16 1175.35,377.20 1182.30,379.89 1189.25,379.79 1196.20,372.22 1203.16,372.88 1210.11,379.26 1217.06,376.64 1224.01,378.74 1230.96,376.66 1237.91,374.15 1244.87,362.66 1251.82,337.92 1258.77,347.06 1265.72,345.51 1272.67,360.33 1279.63,379.41 1286.58,379.92 1293.53,379.62 1300.48,365.51 1307.43,333.61 1314.39,367.92 1321.34,367.85 1328.29,377.56 1335.24,371.11 1342.19,348.96 1349.14,372.71 1356.10,329.47 1363.05,329.77 1370.00,356.38"/>
<line x1="70" y1="122.60" x2="1370" y2="122.60" stroke="#ff7f0e" stroke-width="1.2" stroke-dasharray="6 4"/><line x1="70" y1="182.00" x2="1370" y2="182.00" stroke="#bcbd22" stroke-width="1.2" stroke-dasharray="6 4"/><line x1="250.75" y1="50" x2="250.75" y2="380" stroke="#2ca02c" stroke-width="1.0" opacity="0.35"/><line x1="514.92" y1="50" x2="514.92" y2="380" stroke="#2ca02c" stroke-width="1.0" opacity="0.35"/><line x1="1057.17" y1="50" x2="1057.17" y2="380" stroke="#2ca02c" stroke-width="1.0" opacity="0.35"/><line x1="514.92" y1="50" x2="514.92" y2="380" stroke="#17becf" stroke-width="1.4" opacity="0.75"/><line x1="799.95" y1="50" x2="799.95" y2="380" stroke="#d62728" stroke-width="1.4" opacity="0.75"/><line x1="250.75" y1="50" x2="250.75" y2="380" stroke="#9467bd" stroke-width="1.3" opacity="0.7"/><line x1="1057.17" y1="50" x2="1057.17" y2="380" stroke="#9467bd" stroke-width="1.3" opacity="0.7"/>
<text x="70" y="420" font-size="12" font-family="Arial">Blue=boundary_p, Green=GT, Cyan=TP, Red=FP, Purple=FN, Orange/Olive=thresholds</text>
</svg>
