<svg xmlns="http://www.w3.org/2000/svg" width="1400" height="440">
<rect x="0" y="0" width="1400" height="440" fill="white"/>
<text x="70" y="26" font-size="16" font-family="Arial">utt_0010.wav | TP=1 FP=0 FN=3 | P=1.000 R=0.250</text>
<rect x="70" y="50" width="1300" height="330" fill="none" stroke="#777" stroke-width="1"/>
<polyline fill="none" stroke="#1f77b4" stroke-width="1.3" points="70.00,379.78 76.10,379.44 82.21,377.55 88.31,378.05 94.41,368.71 100.52,374.96 106.62,378.80 112.72,379.85 118.83,379.99 124.93,379.97 131.03,379.97 137.14,379.81 143.24,379.91 149.34,379.45 155.45,375.27 161.55,347.43 167.65,376.26 173.76,379.16 179.86,379.73 185.96,379.67 192.07,360.91 198.17,373.03 204.27,361.99 210.38,375.65 216.48,370.54 222.58,363.30 228.69,378.16 234.79,379.64 240.89,379.31 247.00,378.47 253.10,376.03 259.20,379.70 265.31,379.59 271.41,377.19 277.51,375.29 283.62,376.76 289.72,322.30 295.82,359.67 301.92,321.17 308.03,315.12 314.13,362.93 320.23,330.22 326.34,330.99 332.44,344.92 338.54,361.72 344.65,225.17 350.75,369.07 356.85,354.12 362.96,379.06 369.06,370.97 375.16,339.38 381.27,376.26 387.37,373.69 393.47,376.85 399.58,376.99 405.68,379.33 411.78,367.92 417.89,373.14 423.99,368.98 430.09,373.20 436.20,340.66 442.30,376.85 448.40,378.73 454.51,378.17 460.61,377.10 466.71,379.90 472.82,379.80 478.92,379.80 485.02,374.83 491.13,378.63 497.23,378.89 503.33,378.58 509.44,379.48 515.54,375.17 521.64,379.11 527.75,379.22 533.85,369.49 539.95,330.54 546.06,301.18 552.16,336.26 558.26,359.23 564.37,322.29 570.47,91.88 576.57,65.25 582.68,80.80 588.78,69.35 594.88,132.90 600.99,219.71 607.09,276.95 613.19,370.51 619.30,379.00 625.40,379.23 631.50,379.13 637.61,378.81 643.71,379.60 649.81,378.43 655.92,379.77 662.02,379.51 668.12,379.87 674.23,379.96 680.33,379.86 686.43,377.96 692.54,365.24 698.64,372.16 704.74,377.30 710.85,377.79 716.95,376.55 723.05,377.21 729.15,376.46 735.26,369.20 741.36,332.23 747.46,364.72 753.57,377.77 759.67,378.64 765.77,378.76 771.88,378.93 777.98,379.31 784.08,379.56 790.19,379.99 796.29,379.96 802.39,379.87 808.50,377.43 814.60,364.41 820.70,327.53 826.81,341.22 832.91,238.05 839.01,362.20 845.12,379.65 851.22,378.65 857.32,374.99 863.43,373.74 869.53,371.73 875.63,374.10 881.74,375.33 887.84,372.08 893.94,376.04 900.05,371.71 906.15,372.66 912.25,356.85 918.36,378.08 924.46,378.47 930.56,378.12 936.67,367.99 942.77,368.80 948.87,378.62 954.98,379.20 961.08,378.79 967.18,377.88 973.29,379.74 979.39,379.66 985.49,379.78 991.60,378.87 997.70,378.89 1003.80,376.64 1009.91,373.99 1016.01,372.59 1022.11,377.65 1028.22,364.74 1034.32,377.37 1040.42,378.01 1046.53,377.69 1052.63,369.58 1058.73,378.08 1064.84,371.82 1070.94,378.90 1077.04,379.32 1083.15,373.35 1089.25,354.53 1095.35,367.55 1101.46,360.60 1107.56,377.08 1113.66,379.48 1119.77,378.48 1125.87,378.09 1131.97,378.68 1138.08,376.00 1144.18,372.64 1150.28,373.10 1156.38,361.69 1162.49,354.94 1168.59,317.86 1174.69,369.58 1180.80,377.53 1186.90,371.93 1193.00,371.41 1199.11,377.19 1205.21,379.42 1211.31,379.54 1217.42,379.79 1223.52,377.72 1229.62,361.94 1235.73,356.61 1241.83,334.64 1247.93,317.38 1254.04,348.56 1260.14,233.93 1266.24,183.11 1272.35,360.13 1278.45,365.50 1284.55,366.56 1290.66,376.87 1296.76,369.94 1302.86,369.77 1308.97,366.02 1315.07,374.07 1321.17,357.68 1327.28,359.16 1333.38,366.03 1339.48,377.10 1345.59,377.89 1351.69,375.27 1357.79,371.03 1363.90,350.46 1370.00,363.47"/>
<line x1="70" y1="122.60" x2="1370" y2="122.60" stroke="#ff7f0e" stroke-width="1.2" stroke-dasharray="6 4"/><line x1="70" y1="182.00" x2="1370" y2="182.00" stroke="#bcbd22" stroke-width="1.2" stroke-dasharray="6 4"/><line x1="253.10" y1="50" x2="253.10" y2="380" stroke="#2ca02c" stroke-width="1.0" opacity="0.35"/><line x1="594.88" y1="50" x2="594.88" y2="380" stroke="#2ca02c" stroke-width="1.0" opacity="0.35"/><line x1="1016.01" y1="50" x2="1016.01" y2="380" stroke="#2ca02c" stroke-width="1.0" opacity="0.35"/><line x1="1260.14" y1="50" x2="1260.14" y2="380" stroke="#2ca02c" stroke-width="1.0" opacity="0.35"/><line x1="576.57" y1="50" x2="576.57" y2="380" stroke="#17becf" stroke-width="1.4" opacity="0.75"/><line x1="253.10" y1="50" x2="253.10" y2="380" stroke="#9467bd" stroke-width="1.3" opacity="0.7"/><line x1="1016.01" y1="50" x2="1016.01" y2="380" stroke="#9467bd" stroke-width="1.3" opacity="0.7"/><line x1="1260.14" y1="50" x2="1260.14" y2="380" stroke="#9467bd" stroke-width="1.3" opacity="0.7"/>
<text x="70" y="420" font-size="12" font-family="Arial">Blue=boundary_p, Green=GT, Cyan=TP, Red=FP, Purple=FN, Orange/Olive=thresholds</text>
</svg>
