<svg xmlns="http://www.w3.org/2000/svg" width="1400" height="440">
<rect x="0" y="0" width="1400" height="440" fill="white"/>
<text x="70" y="26" font-size="16" font-family="Arial">utt_0019.wav | TP=3 FP=0 FN=3 | P=1.000 R=0.500</text>
<rect x="70" y="50" width="1300" height="330" fill="none" stroke="#777" stroke-width="1"/>
<polyline fill="none" stroke="#1f77b4" stroke-width="1.3" points="70.00,379.43 74.06,379.40 78.12,377.25 82.19,377.94 86.25,348.02 90.31,378.18 94.38,378.74 98.44,378.94 102.50,366.89 106.56,373.20 110.62,374.75 114.69,378.66 118.75,376.54 122.81,375.30 126.88,372.63 130.94,379.24 135.00,379.99 139.06,380.00 143.12,379.97 147.19,379.44 151.25,372.36 155.31,375.97 159.38,338.14 163.44,353.36 167.50,274.43 171.56,279.96 175.62,349.80 179.69,373.63 183.75,379.11 187.81,379.03 191.88,379.71 195.94,378.70 200.00,379.92 204.06,378.50 208.12,376.69 212.19,377.93 216.25,320.68 220.31,366.60 224.38,355.54 228.44,339.21 232.50,374.11 236.56,348.45 240.62,321.52 244.69,267.75 248.75,372.34 252.81,379.50 256.88,379.52 260.94,378.49 265.00,379.78 269.06,379.93 273.12,371.90 277.19,370.47 281.25,378.37 285.31,375.79 289.38,375.32 293.44,377.03 297.50,364.55 301.56,296.59 305.62,367.06 309.69,371.54 313.75,377.25 317.81,379.62 321.88,379.82 325.94,379.98 330.00,380.00 334.06,379.96 338.12,379.98 342.19,379.97 346.25,379.33 350.31,379.89 354.38,379.91 358.44,377.25 362.50,363.77 366.56,351.61 370.62,301.96 374.69,259.96 378.75,147.35 382.81,225.28 386.88,183.82 390.94,103.87 395.00,117.43 399.06,56.76 403.13,73.06 407.19,160.48 411.25,359.16 415.31,374.15 419.38,290.08 423.44,370.70 427.50,374.57 431.56,377.56 435.62,379.19 439.69,377.42 443.75,366.20 447.81,373.57 451.88,327.02 455.94,155.36 460.00,210.05 464.06,252.54 468.13,357.18 472.19,367.56 476.25,378.62 480.31,379.90 484.38,378.84 488.44,379.71 492.50,379.78 496.56,379.24 500.62,379.91 504.69,379.94 508.75,379.98 512.81,379.76 516.88,370.72 520.94,358.30 525.00,377.47 529.06,377.61 533.12,379.87 537.19,379.63 541.25,369.81 545.31,270.50 549.38,351.41 553.44,353.21 557.50,345.37 561.56,378.29 565.62,371.01 569.69,349.45 573.75,363.57 577.81,351.74 581.88,374.51 585.94,379.80 590.00,379.96 594.06,379.97 598.12,380.00 602.19,379.98 606.25,379.50 610.31,375.84 614.38,371.78 618.44,377.43 622.50,378.75 626.56,375.26 630.62,351.12 634.69,294.46 638.75,236.82 642.81,363.12 646.88,358.40 650.94,295.46 655.00,257.09 659.06,124.87 663.12,331.70 667.19,308.03 671.25,372.69 675.31,379.34 679.38,379.66 683.44,378.83 687.50,379.22 691.56,379.74 695.63,379.86 699.69,379.83 703.75,379.29 707.81,379.77 711.88,379.86 715.94,379.70 720.00,379.36 724.06,379.89 728.13,375.20 732.19,377.51 736.25,377.40 740.31,334.72 744.38,313.94 748.44,351.95 752.50,366.13 756.56,366.35 760.63,270.62 764.69,304.07 768.75,374.99 772.81,360.84 776.88,150.43 780.94,123.90 785.00,86.61 789.06,136.38 793.12,369.61 797.19,353.97 801.25,377.69 805.31,379.73 809.38,379.98 813.44,379.98 817.50,379.88 821.56,379.82 825.63,372.49 829.69,352.99 833.75,379.28 837.81,379.61 841.88,375.61 845.94,375.94 850.00,376.65 854.06,361.25 858.13,371.79 862.19,375.78 866.25,364.17 870.31,320.63 874.38,200.30 878.44,285.35 882.50,326.88 886.56,323.82 890.63,209.85 894.69,146.33 898.75,147.20 902.81,170.43 906.88,238.23 910.94,214.62 915.00,185.15 919.06,269.35 923.12,375.58 927.19,374.14 931.25,379.50 935.31,378.03 939.38,379.49 943.44,378.68 947.50,379.76 951.56,379.97 955.62,379.86 959.69,378.11 963.75,373.96 967.81,379.77 971.88,379.74 975.94,379.84 980.00,343.05 984.06,340.37 988.13,373.57 992.19,376.74 996.25,378.33 1000.31,378.07 1004.38,379.52 1008.44,379.89 1012.50,379.94 1016.56,376.49 1020.63,379.45 1024.69,375.52 1028.75,379.90 1032.81,379.93 1036.88,379.90 1040.94,379.73 1045.00,343.67 1049.06,340.01 1053.12,370.30 1057.19,324.22 1061.25,265.49 1065.31,335.61 1069.38,354.96 1073.44,366.59 1077.50,315.21 1081.56,375.99 1085.62,378.43 1089.69,376.14 1093.75,376.86 1097.81,378.00 1101.88,379.94 1105.94,379.97 1110.00,379.99 1114.06,379.12 1118.12,349.67 1122.19,369.56 1126.25,376.83 1130.31,373.60 1134.38,378.29 1138.44,378.05 1142.50,366.88 1146.56,299.03 1150.62,365.73 1154.69,362.46 1158.75,372.18 1162.81,377.28 1166.88,372.73 1170.94,368.62 1175.00,329.35 1179.06,346.82 1183.12,367.63 1187.19,379.79 1191.25,379.06 1195.31,364.90 1199.38,334.02 1203.44,320.83 1207.50,314.28 1211.56,347.54 1215.63,211.21 1219.69,149.82 1223.75,106.88 1227.81,170.41 1231.88,260.96 1235.94,305.28 1240.00,253.24 1244.06,242.55 1248.12,376.15 1252.19,379.89 1256.25,379.93 1260.31,379.95 1264.38,379.95 1268.44,379.14 1272.50,379.23 1276.56,377.52 1280.62,379.99 1284.69,379.02 1288.75,379.86 1292.81,379.06 1296.88,376.94 1300.94,379.46 1305.00,377.86 1309.06,369.47 1313.12,337.96 1317.19,378.77 1321.25,346.82 1325.31,349.24 1329.38,377.21 1333.44,379.13 1337.50,379.72 1341.56,379.01 1345.62,377.09 1349.69,379.72 1353.75,379.85 1357.81,378.80 1361.88,373.25 1365.94,345.83 1370.00,280.16"/>
<line x1="70" y1="122.60" x2="1370" y2="122.60" stroke="#ff7f0e" stroke-width="1.2" stroke-dasharray="6 4"/><line x1="70" y1="182.00" x2="1370" y2="182.00" stroke="#bcbd22" stroke-width="1.2" stroke-dasharray="6 4"/><line x1="232.50" y1="50" x2="232.50" y2="380" stroke="#2ca02c" stroke-width="1.0" opacity="0.35"/><line x1="386.88" y1="50" x2="386.88" y2="380" stroke="#2ca02c" stroke-width="1.0" opacity="0.35"/><line x1="642.81" y1="50" x2="642.81" y2="380" stroke="#2ca02c" stroke-width="1.0" opacity="0.35"/><line x1="789.06" y1="50" x2="789.06" y2="380" stroke="#2ca02c" stroke-width="1.0" opacity="0.35"/><line x1="902.81" y1="50" x2="902.81" y2="380" stroke="#2ca02c" stroke-width="1.0" opacity="0.35"/><line x1="1219.69" y1="50" x2="1219.69" y2="380" stroke="#2ca02c" stroke-width="1.0" opacity="0.35"/><line x1="399.06" y1="50" x2="399.06" y2="380" stroke="#17becf" stroke-width="1.4" opacity="0.75"/><line x1="785.00" y1="50" x2="785.00" y2="380" stroke="#17becf" stroke-width="1.4" opacity="0.75"/><line x1="1223.75" y1="50" x2="1223.75" y2="380" stroke="#17becf" stroke-width="1.4" opacity="0.75"/><line x1="232.50" y1="50" x2="232.50" y2="380" stroke="#9467bd" stroke-width="1.3" opacity="0.7"/><line x1="642.81" y1="50" x2="642.81" y2="380" stroke="#9467bd" stroke-width="1.3" opacity="0.7"/><line x1="902.81" y1="50" x2="902.81" y2="380" stroke="#9467bd" stroke-width="1.3" opacity="0.7"/>
<text x="70" y="420" font-size="12" font-family="Arial">Blue=boundary_p, Green=GT, Cyan=TP, Red=FP, Purple=FN, Orange/Olive=thresholds</text>
</svg>
