<svg xmlns="http://www.w3.org/2000/svg" width="1400" height="440">
<rect x="0" y="0" width="1400" height="440" fill="white"/>
<text x="70" y="26" font-size="16" font-family="Arial">utt_0017.wav | TP=2 FP=1 FN=2 | P=0.667 R=0.500</text>
<rect x="70" y="50" width="1300" height="330" fill="none" stroke="#777" stroke-width="1"/>
<polyline fill="none" stroke="#1f77b4" stroke-width="1.3" points="70.00,379.77 76.07,379.60 82.15,377.80 88.22,378.17 94.30,375.51 100.37,373.70 106.45,376.76 112.52,377.16 118.60,375.84 124.67,378.32 130.75,379.49 136.82,379.52 142.90,379.05 148.97,376.77 155.05,375.73 161.12,371.38 167.20,379.70 173.27,379.57 179.35,379.24 185.42,379.32 191.50,376.49 197.57,374.61 203.64,372.18 209.72,372.10 215.79,374.02 221.87,372.20 227.94,375.67 234.02,378.65 240.09,379.08 246.17,375.17 252.24,370.63 258.32,369.63 264.39,314.84 270.47,264.64 276.54,139.79 282.62,104.42 288.69,70.01 294.77,160.51 300.84,142.24 306.92,292.98 312.99,361.60 319.07,376.95 325.14,379.90 331.21,379.95 337.29,380.00 343.36,379.97 349.44,379.96 355.51,379.99 361.59,379.88 367.66,378.12 373.74,379.01 379.81,377.70 385.89,373.69 391.96,369.81 398.04,357.34 404.11,364.00 410.19,374.52 416.26,368.16 422.34,378.12 428.41,377.80 434.49,378.90 440.56,371.26 446.64,356.03 452.71,353.71 458.79,374.24 464.86,377.79 470.93,378.27 477.01,378.50 483.08,371.92 489.16,376.27 495.23,373.32 501.31,369.61 507.38,377.42 513.46,368.70 519.53,378.18 525.61,379.14 531.68,379.63 537.76,379.27 543.83,379.94 549.91,379.84 555.98,379.87 562.06,379.34 568.13,377.81 574.21,378.14 580.28,379.26 586.36,379.49 592.43,372.82 598.50,368.91 604.58,304.94 610.65,103.98 616.73,175.91 622.80,205.20 628.88,135.94 634.95,148.93 641.03,157.11 647.10,279.20 653.18,296.68 659.25,306.22 665.33,371.41 671.40,376.79 677.48,379.60 683.55,379.99 689.63,379.98 695.70,379.98 701.78,379.85 707.85,376.03 713.93,375.06 720.00,379.25 726.07,379.81 732.15,379.94 738.22,379.89 744.30,379.06 750.37,379.84 756.45,378.83 762.52,377.50 768.60,286.23 774.67,335.97 780.75,377.69 786.82,379.80 792.90,379.68 798.97,379.18 805.05,376.64 811.12,371.77 817.20,358.98 823.27,323.40 829.35,373.40 835.42,370.57 841.50,366.20 847.57,375.60 853.64,363.10 859.72,376.30 865.79,374.27 871.87,364.53 877.94,346.93 884.02,322.62 890.09,372.84 896.17,378.59 902.24,365.58 908.32,359.30 914.39,286.84 920.47,256.28 926.54,378.74 932.62,379.75 938.69,377.93 944.77,361.19 950.84,351.94 956.92,375.31 962.99,367.54 969.07,374.42 975.14,378.67 981.21,369.81 987.29,379.31 993.36,377.94 999.44,353.50 1005.51,377.62 1011.59,379.71 1017.66,379.60 1023.74,379.69 1029.81,377.94 1035.89,379.76 1041.96,379.94 1048.04,379.91 1054.11,379.92 1060.19,379.64 1066.26,379.79 1072.34,377.29 1078.41,377.90 1084.49,366.95 1090.56,218.54 1096.64,238.42 1102.71,229.26 1108.79,119.62 1114.86,264.14 1120.93,376.17 1127.01,379.87 1133.08,379.99 1139.16,379.84 1145.23,379.64 1151.31,374.07 1157.38,379.56 1163.46,379.57 1169.53,374.86 1175.61,347.98 1181.68,379.40 1187.76,376.27 1193.83,376.66 1199.91,378.66 1205.98,350.87 1212.06,376.55 1218.13,379.94 1224.21,379.94 1230.28,379.22 1236.36,379.15 1242.43,378.75 1248.50,379.90 1254.58,378.04 1260.65,376.93 1266.73,378.60 1272.80,377.95 1278.88,374.40 1284.95,375.53 1291.03,373.21 1297.10,373.38 1303.18,359.53 1309.25,374.11 1315.33,379.58 1321.40,378.63 1327.48,376.28 1333.55,374.04 1339.63,378.43 1345.70,376.60 1351.78,379.04 1357.85,373.28 1363.93,354.78 1370.00,306.61"/>
<line x1="70" y1="122.60" x2="1370" y2="122.60" stroke="#ff7f0e" stroke-width="1.2" stroke-dasharray="6 4"/><line x1="70" y1="182.00" x2="1370" y2="182.00" stroke="#bcbd22" stroke-width="1.2" stroke-dasharray="6 4"/><line x1="288.69" y1="50" x2="288.69" y2="380" stroke="#2ca02c" stroke-width="1.0" opacity="0.35"/><line x1="659.25" y1="50" x2="659.25" y2="380" stroke="#2ca02c" stroke-width="1.0" opacity="0.35"/><line x1="896.17" y1="50" x2="896.17" y2="380" stroke="#2ca02c" stroke-width="1.0" opacity="0.35"/><line x1="1108.79" y1="50" x2="1108.79" y2="380" stroke="#2ca02c" stroke-width="1.0" opacity="0.35"/><line x1="288.69" y1="50" x2="288.69" y2="380" stroke="#17becf" stroke-width="1.4" opacity="0.75"/><line x1="1108.79" y1="50" x2="1108.79" y2="380" stroke="#17becf" stroke-width="1.4" opacity="0.75"/><line x1="610.65" y1="50" x2="610.65" y2="380" stroke="#d62728" stroke-width="1.4" opacity="0.75"/><line x1="659.25" y1="50" x2="659.25" y2="380" stroke="#9467bd" stroke-width="1.3" opacity="0.7"/><line x1="896.17" y1="50" x2="896.17" y2="380" stroke="#9467bd" stroke-width="1.3" opacity="0.7"/>
<text x="70" y="420" font-size="12" font-family="Arial">Blue=boundary_p, Green=GT, Cyan=TP, Red=FP, Purple=FN, Orange/Olive=thresholds</text>
</svg>
