<svg xmlns="http://www.w3.org/2000/svg" width="1400" height="440">
<rect x="0" y="0" width="1400" height="440" fill="white"/>
<text x="70" y="26" font-size="16" font-family="Arial">utt_0034.wav | TP=2 FP=1 FN=3 | P=0.667 R=0.400</text>
<rect x="70" y="50" width="1300" height="330" fill="none" stroke="#777" stroke-width="1"/>
<polyline fill="none" stroke="#1f77b4" stroke-width="1.3" points="70.00,378.91 75.24,379.41 80.48,377.13 85.73,376.61 90.97,354.75 96.21,366.40 101.45,359.26 106.69,377.59 111.94,374.16 117.18,379.37 122.42,379.80 127.66,379.79 132.90,379.47 138.15,378.15 143.39,376.88 148.63,379.40 153.87,379.98 159.11,379.73 164.35,379.89 169.60,379.87 174.84,375.29 180.08,370.47 185.32,363.27 190.56,362.82 195.81,353.96 201.05,369.92 206.29,375.47 211.53,379.75 216.77,379.90 222.02,379.15 227.26,378.74 232.50,379.89 237.74,379.26 242.98,379.40 248.23,379.33 253.47,378.64 258.71,364.43 263.95,376.63 269.19,370.26 274.44,355.10 279.68,373.37 284.92,363.29 290.16,372.00 295.40,379.41 300.65,372.67 305.89,378.19 311.13,379.64 316.37,378.54 321.61,373.94 326.85,334.16 332.10,270.63 337.34,266.63 342.58,231.57 347.82,107.28 353.06,63.41 358.31,62.04 363.55,88.21 368.79,108.05 374.03,177.28 379.27,341.17 384.52,374.20 389.76,379.32 395.00,379.39 400.24,378.93 405.48,377.94 410.73,379.53 415.97,379.19 421.21,379.24 426.45,379.77 431.69,379.81 436.94,375.24 442.18,351.57 447.42,368.72 452.66,230.68 457.90,365.48 463.15,372.79 468.39,363.80 473.63,206.24 478.87,377.81 484.11,377.27 489.35,376.32 494.60,378.95 499.84,379.29 505.08,379.63 510.32,379.55 515.56,377.63 520.81,373.08 526.05,369.46 531.29,346.96 536.53,281.29 541.77,371.99 547.02,351.45 552.26,373.97 557.50,365.79 562.74,357.43 567.98,365.94 573.23,371.56 578.47,379.43 583.71,375.28 588.95,369.99 594.19,276.69 599.44,346.07 604.68,308.53 609.92,322.98 615.16,350.74 620.40,377.00 625.65,379.08 630.89,379.98 636.13,379.84 641.37,379.84 646.61,372.40 651.85,379.81 657.10,379.64 662.34,378.34 667.58,374.01 672.82,379.65 678.06,379.90 683.31,379.85 688.55,379.97 693.79,377.13 699.03,378.73 704.27,377.51 709.52,379.81 714.76,371.90 720.00,375.66 725.24,357.08 730.48,378.28 735.73,375.66 740.97,340.00 746.21,375.93 751.45,377.68 756.69,373.07 761.94,330.99 767.18,365.24 772.42,374.13 777.66,367.96 782.90,377.43 788.15,348.51 793.39,375.66 798.63,377.03 803.87,357.08 809.11,366.05 814.35,313.27 819.60,286.96 824.84,265.99 830.08,217.16 835.32,340.72 840.56,374.90 845.81,376.60 851.05,374.78 856.29,378.54 861.53,379.55 866.77,375.14 872.02,375.87 877.26,371.50 882.50,354.61 887.74,326.73 892.98,144.79 898.23,76.42 903.47,167.69 908.71,234.99 913.95,138.07 919.19,189.32 924.44,98.50 929.68,115.24 934.92,308.86 940.16,316.85 945.40,353.79 950.65,377.95 955.89,379.13 961.13,378.82 966.37,378.53 971.61,377.87 976.85,379.66 982.10,379.85 987.34,379.92 992.58,379.90 997.82,379.53 1003.06,379.59 1008.31,376.12 1013.55,371.75 1018.79,376.56 1024.03,379.20 1029.27,378.10 1034.52,319.31 1039.76,335.52 1045.00,365.42 1050.24,372.18 1055.48,377.76 1060.73,379.47 1065.97,379.68 1071.21,379.68 1076.45,379.25 1081.69,378.39 1086.94,379.39 1092.18,371.17 1097.42,354.89 1102.66,357.31 1107.90,344.05 1113.15,313.63 1118.39,257.31 1123.63,373.53 1128.87,339.54 1134.11,280.81 1139.35,229.29 1144.60,317.83 1149.84,350.70 1155.08,376.79 1160.32,350.88 1165.56,373.39 1170.81,375.80 1176.05,375.69 1181.29,379.60 1186.53,379.95 1191.77,361.05 1197.02,338.42 1202.26,379.08 1207.50,379.32 1212.74,377.98 1217.98,375.13 1223.23,376.99 1228.47,365.20 1233.71,374.28 1238.95,319.97 1244.19,371.24 1249.44,379.17 1254.68,376.64 1259.92,377.45 1265.16,378.00 1270.40,373.76 1275.65,378.82 1280.89,379.74 1286.13,379.57 1291.37,379.82 1296.61,379.63 1301.85,376.90 1307.10,378.64 1312.34,369.90 1317.58,354.28 1322.82,346.34 1328.06,133.34 1333.31,124.08 1338.55,237.35 1343.79,332.74 1349.03,368.96 1354.27,373.17 1359.52,364.75 1364.76,374.15 1370.00,344.62"/>
<line x1="70" y1="122.60" x2="1370" y2="122.60" stroke="#ff7f0e" stroke-width="1.2" stroke-dasharray="6 4"/><line x1="70" y1="182.00" x2="1370" y2="182.00" stroke="#bcbd22" stroke-width="1.2" stroke-dasharray="6 4"/><line x1="363.55" y1="50" x2="363.55" y2="380" stroke="#2ca02c" stroke-width="1.0" opacity="0.35"/><line x1="463.15" y1="50" x2="463.15" y2="380" stroke="#2ca02c" stroke-width="1.0" opacity="0.35"/><line x1="772.42" y1="50" x2="772.42" y2="380" stroke="#2ca02c" stroke-width="1.0" opacity="0.35"/><line x1="913.95" y1="50" x2="913.95" y2="380" stroke="#2ca02c" stroke-width="1.0" opacity="0.35"/><line x1="1107.90" y1="50" x2="1107.90" y2="380" stroke="#2ca02c" stroke-width="1.0" opacity="0.35"/><line x1="358.31" y1="50" x2="358.31" y2="380" stroke="#17becf" stroke-width="1.4" opacity="0.75"/><line x1="898.23" y1="50" x2="898.23" y2="380" stroke="#17becf" stroke-width="1.4" opacity="0.75"/><line x1="924.44" y1="50" x2="924.44" y2="380" stroke="#d62728" stroke-width="1.4" opacity="0.75"/><line x1="463.15" y1="50" x2="463.15" y2="380" stroke="#9467bd" stroke-width="1.3" opacity="0.7"/><line x1="772.42" y1="50" x2="772.42" y2="380" stroke="#9467bd" stroke-width="1.3" opacity="0.7"/><line x1="1107.90" y1="50" x2="1107.90" y2="380" stroke="#9467bd" stroke-width="1.3" opacity="0.7"/>
<text x="70" y="420" font-size="12" font-family="Arial">Blue=boundary_p, Green=GT, Cyan=TP, Red=FP, Purple=FN, Orange/Olive=thresholds</text>
</svg>
