<svg xmlns="http://www.w3.org/2000/svg" width="1400" height="440">
<rect x="0" y="0" width="1400" height="440" fill="white"/>
<text x="70" y="26" font-size="16" font-family="Arial">utt_0001.wav | TP=3 FP=1 FN=0 | P=0.750 R=1.000</text>
<rect x="70" y="50" width="1300" height="330" fill="none" stroke="#777" stroke-width="1"/>
<polyline fill="none" stroke="#1f77b4" stroke-width="1.3" points="70.00,379.64 77.18,379.50 84.36,378.38 91.55,377.60 98.73,366.65 105.91,374.76 113.09,379.40 120.28,379.83 127.46,379.64 134.64,379.88 141.82,379.96 149.01,379.97 156.19,379.96 163.37,379.91 170.55,379.93 177.73,379.93 184.92,379.99 192.10,379.98 199.28,379.89 206.46,379.70 213.65,377.58 220.83,368.55 228.01,311.12 235.19,317.86 242.38,316.42 249.56,319.94 256.74,213.16 263.92,245.19 271.10,139.84 278.29,295.82 285.47,356.91 292.65,371.14 299.83,379.84 307.02,379.89 314.20,376.33 321.38,378.44 328.56,379.36 335.75,378.29 342.93,379.76 350.11,378.80 357.29,379.40 364.48,379.36 371.66,379.95 378.84,379.98 386.02,379.16 393.20,367.05 400.39,378.87 407.57,379.67 414.75,379.17 421.93,288.94 429.12,334.89 436.30,342.44 443.48,349.81 450.66,376.73 457.85,302.62 465.03,260.14 472.21,111.77 479.39,374.50 486.57,378.98 493.76,378.12 500.94,379.41 508.12,379.78 515.30,379.33 522.49,377.72 529.67,374.31 536.85,377.56 544.03,378.88 551.22,365.73 558.40,369.38 565.58,373.16 572.76,378.07 579.94,378.18 587.13,379.84 594.31,378.03 601.49,376.58 608.67,378.25 615.86,379.32 623.04,379.90 630.22,379.67 637.40,379.34 644.59,376.82 651.77,370.87 658.95,297.91 666.13,354.67 673.31,357.06 680.50,222.67 687.68,95.72 694.86,94.04 702.04,90.40 709.23,154.51 716.41,285.90 723.59,251.82 730.77,253.73 737.96,377.37 745.14,374.97 752.32,379.64 759.50,379.96 766.69,379.97 773.87,379.12 781.05,376.56 788.23,377.81 795.41,379.94 802.60,379.94 809.78,378.45 816.96,379.92 824.14,378.52 831.33,379.85 838.51,378.49 845.69,378.03 852.87,377.80 860.06,379.38 867.24,375.73 874.42,364.14 881.60,210.92 888.78,320.76 895.97,356.32 903.15,298.37 910.33,114.92 917.51,159.02 924.70,137.36 931.88,109.03 939.06,216.12 946.24,272.12 953.43,184.83 960.61,80.14 967.79,63.66 974.97,193.30 982.15,163.07 989.34,301.31 996.52,97.94 1003.70,297.08 1010.88,374.82 1018.07,379.62 1025.25,379.93 1032.43,379.97 1039.61,378.90 1046.80,379.92 1053.98,379.96 1061.16,378.65 1068.34,372.82 1075.52,379.42 1082.71,377.55 1089.89,379.43 1097.07,379.93 1104.25,379.93 1111.44,379.46 1118.62,379.75 1125.80,379.71 1132.98,379.32 1140.17,379.82 1147.35,379.86 1154.53,379.85 1161.71,379.45 1168.90,378.12 1176.08,379.81 1183.26,378.70 1190.44,379.81 1197.62,374.73 1204.81,375.25 1211.99,374.06 1219.17,379.17 1226.35,379.34 1233.54,378.65 1240.72,368.65 1247.90,359.41 1255.08,364.77 1262.27,365.71 1269.45,379.50 1276.63,378.06 1283.81,364.44 1290.99,379.36 1298.18,379.70 1305.36,376.39 1312.54,378.91 1319.72,378.68 1326.91,364.98 1334.09,364.96 1341.27,372.40 1348.45,375.51 1355.64,371.95 1362.82,361.69 1370.00,346.47"/>
<line x1="70" y1="122.60" x2="1370" y2="122.60" stroke="#ff7f0e" stroke-width="1.2" stroke-dasharray="6 4"/><line x1="70" y1="182.00" x2="1370" y2="182.00" stroke="#bcbd22" stroke-width="1.2" stroke-dasharray="6 4"/><line x1="472.21" y1="50" x2="472.21" y2="380" stroke="#2ca02c" stroke-width="1.0" opacity="0.35"/><line x1="687.68" y1="50" x2="687.68" y2="380" stroke="#2ca02c" stroke-width="1.0" opacity="0.35"/><line x1="996.52" y1="50" x2="996.52" y2="380" stroke="#2ca02c" stroke-width="1.0" opacity="0.35"/><line x1="472.21" y1="50" x2="472.21" y2="380" stroke="#17becf" stroke-width="1.4" opacity="0.75"/><line x1="702.04" y1="50" x2="702.04" y2="380" stroke="#17becf" stroke-width="1.4" opacity="0.75"/><line x1="967.79" y1="50" x2="967.79" y2="380" stroke="#17becf" stroke-width="1.4" opacity="0.75"/><line x1="931.88" y1="50" x2="931.88" y2="380" stroke="#d62728" stroke-width="1.4" opacity="0.75"/>
<text x="70" y="420" font-size="12" font-family="Arial">Blue=boundary_p, Green=GT, Cyan=TP, Red=FP, Purple=FN, Orange/Olive=thresholds</text>
</svg>
