<svg xmlns="http://www.w3.org/2000/svg" width="1400" height="440">
<rect x="0" y="0" width="1400" height="440" fill="white"/>
<text x="70" y="26" font-size="16" font-family="Arial">utt_0040.wav | TP=2 FP=0 FN=5 | P=1.000 R=0.286</text>
<rect x="70" y="50" width="1300" height="330" fill="none" stroke="#777" stroke-width="1"/>
<polyline fill="none" stroke="#1f77b4" stroke-width="1.3" points="70.00,379.78 76.40,379.43 82.81,378.39 89.21,378.51 95.62,369.33 102.02,373.41 108.42,377.33 114.83,379.35 121.23,379.93 127.64,379.97 134.04,379.98 140.44,379.97 146.85,379.71 153.25,379.57 159.66,379.38 166.06,375.22 172.46,371.36 178.87,370.09 185.27,367.95 191.67,362.04 198.08,241.69 204.48,275.48 210.89,264.73 217.29,172.13 223.69,115.21 230.10,183.92 236.50,167.29 242.91,370.16 249.31,355.67 255.71,376.61 262.12,379.90 268.52,379.99 274.93,379.97 281.33,379.76 287.73,379.73 294.14,379.46 300.54,379.56 306.95,380.00 313.35,379.99 319.75,379.99 326.16,379.92 332.56,379.94 338.97,377.65 345.37,378.22 351.77,374.09 358.18,373.05 364.58,377.41 370.99,378.98 377.39,376.31 383.79,369.99 390.20,376.03 396.60,377.37 403.00,374.64 409.41,356.23 415.81,301.17 422.22,348.37 428.62,376.97 435.02,379.22 441.43,376.69 447.83,359.25 454.24,177.21 460.64,378.91 467.04,379.45 473.45,379.91 479.85,379.61 486.26,379.19 492.66,379.70 499.06,379.90 505.47,379.61 511.87,379.87 518.28,379.81 524.68,373.83 531.08,366.45 537.49,348.27 543.89,273.95 550.30,240.82 556.70,170.65 563.10,153.95 569.51,131.11 575.91,105.75 582.32,70.91 588.72,194.36 595.12,315.41 601.53,362.93 607.93,324.71 614.33,371.86 620.74,379.28 627.14,379.13 633.55,379.42 639.95,379.74 646.35,355.52 652.76,335.30 659.16,378.61 665.57,379.86 671.97,379.13 678.37,379.34 684.78,379.36 691.18,379.87 697.59,379.94 703.99,379.92 710.39,377.57 716.80,369.12 723.20,370.80 729.61,251.24 736.01,358.98 742.41,372.95 748.82,367.58 755.22,365.16 761.63,369.90 768.03,372.19 774.43,363.31 780.84,371.38 787.24,360.86 793.65,375.46 800.05,376.47 806.45,377.54 812.86,370.82 819.26,379.70 825.67,378.68 832.07,379.90 838.47,378.47 844.88,379.80 851.28,379.62 857.68,361.92 864.09,352.90 870.49,375.09 876.90,379.76 883.30,379.22 889.70,349.14 896.11,367.89 902.51,339.99 908.92,350.58 915.32,369.75 921.72,366.43 928.13,377.24 934.53,377.45 940.94,379.37 947.34,379.77 953.74,378.97 960.15,379.55 966.55,379.94 972.96,379.94 979.36,379.72 985.76,379.23 992.17,361.97 998.57,237.53 1004.98,201.15 1011.38,165.79 1017.78,127.96 1024.19,148.63 1030.59,288.49 1037.00,362.48 1043.40,192.34 1049.80,349.06 1056.21,377.39 1062.61,379.65 1069.01,368.14 1075.42,371.23 1081.82,376.42 1088.23,379.83 1094.63,378.90 1101.03,378.84 1107.44,378.16 1113.84,372.98 1120.25,367.93 1126.65,374.03 1133.05,374.11 1139.46,370.22 1145.86,287.60 1152.27,374.71 1158.67,379.51 1165.07,378.61 1171.48,335.34 1177.88,351.44 1184.29,361.07 1190.69,345.01 1197.09,308.02 1203.50,165.83 1209.90,155.47 1216.31,324.63 1222.71,369.55 1229.11,379.85 1235.52,379.56 1241.92,378.69 1248.33,375.55 1254.73,379.67 1261.13,379.97 1267.54,377.50 1273.94,375.23 1280.34,316.87 1286.75,357.68 1293.15,374.95 1299.56,377.38 1305.96,370.77 1312.36,377.63 1318.77,379.82 1325.17,379.98 1331.58,379.95 1337.98,379.85 1344.38,379.50 1350.79,379.11 1357.19,378.91 1363.60,378.07 1370.00,359.44"/>
<line x1="70" y1="122.60" x2="1370" y2="122.60" stroke="#ff7f0e" stroke-width="1.2" stroke-dasharray="6 4"/><line x1="70" y1="182.00" x2="1370" y2="182.00" stroke="#bcbd22" stroke-width="1.2" stroke-dasharray="6 4"/><line x1="236.50" y1="50" x2="236.50" y2="380" stroke="#2ca02c" stroke-width="1.0" opacity="0.35"/><line x1="345.37" y1="50" x2="345.37" y2="380" stroke="#2ca02c" stroke-width="1.0" opacity="0.35"/><line x1="582.32" y1="50" x2="582.32" y2="380" stroke="#2ca02c" stroke-width="1.0" opacity="0.35"/><line x1="691.18" y1="50" x2="691.18" y2="380" stroke="#2ca02c" stroke-width="1.0" opacity="0.35"/><line x1="1049.80" y1="50" x2="1049.80" y2="380" stroke="#2ca02c" stroke-width="1.0" opacity="0.35"/><line x1="1184.29" y1="50" x2="1184.29" y2="380" stroke="#2ca02c" stroke-width="1.0" opacity="0.35"/><line x1="1286.75" y1="50" x2="1286.75" y2="380" stroke="#2ca02c" stroke-width="1.0" opacity="0.35"/><line x1="223.69" y1="50" x2="223.69" y2="380" stroke="#17becf" stroke-width="1.4" opacity="0.75"/><line x1="582.32" y1="50" x2="582.32" y2="380" stroke="#17becf" stroke-width="1.4" opacity="0.75"/><line x1="345.37" y1="50" x2="345.37" y2="380" stroke="#9467bd" stroke-width="1.3" opacity="0.7"/><line x1="691.18" y1="50" x2="691.18" y2="380" stroke="#9467bd" stroke-width="1.3" opacity="0.7"/><line x1="1049.80" y1="50" x2="1049.80" y2="380" stroke="#9467bd" stroke-width="1.3" opacity="0.7"/><line x1="1184.29" y1="50" x2="1184.29" y2="380" stroke="#9467bd" stroke-width="1.3" opacity="0.7"/><line x1="1286.75" y1="50" x2="1286.75" y2="380" stroke="#9467bd" stroke-width="1.3" opacity="0.7"/>
<text x="70" y="420" font-size="12" font-family="Arial">Blue=boundary_p, Green=GT, Cyan=TP, Red=FP, Purple=FN, Orange/Olive=thresholds</text>
</svg>
